<svg xmlns="http://www.w3.org/2000/svg" id="Calque_2" data-name="Calque 2" viewBox="0 0 2523.72 440.59"><defs><style>.cls-1{fill:#000;stroke-width:0}</style></defs><g id="Calque_1-2" data-name="Calque 1"><g><g><path d="M215.65,9.29C96.55,9.29,0,105.84,0,224.94s96.55,215.65,215.65,215.65,215.65-96.55,215.65-215.65S334.75,9.29,215.65,9.29ZM355.73,365.03c-37.42,37.42-87.17,58.02-140.08,58.02-35.98,0-70.49-9.54-100.67-27.4l22.89,1.2,22.19,9.19,30.01-12.43-69.54-28.8-14.15-14.15,65.06,26.95-16.76-23.52,65.4,27.09,65.05,18.66-145.96-60.46-5.21-32.26.64-31.9,29.71-22.56-5.3,8.71,14.38,3.33.95-3.4,14.38,4.56-4.92-8.47,8.42,1.18s11.26,3.94,11.73,4.09c.47.15-6.34-5.6-6.34-5.6l27.62-11.05-15.25.11-9.62-10.65,19.01,1.11-29.99-23.54,17.69-1.8-24.61-20.47,16.28,1.33-29.61-29.27,15.04,6.71-23.27-24.43,11.07,4.02-20.15-20.5,7.38,3.06-28.66-42.79-26.96,34.21,19.2-7.32-28,22.18,12.11-2.87-23.93,19.77,18.07-4.88-37.56,30.14,18.07-.72-27.06,15.56,18.83,6.93-30.94,15.81,16.56-.31-21.48,12.09,19.02,4.02-7.9,6.92-15.43,5.6,26.8,10.95-3.1,3.98,16.54.21-4.82,6.38,20.16-2.5-2.58-4.93,17.23,5.63s-21.44-26.13-22.05-26.47c.48.25,9.99,4.85,9.99,4.85l28.26,29.72v33.29s-5.86,35.63-5.86,35.63l-39.11,1.03-12.48,6.37c-28.87-35.27-44.56-79.03-44.56-125.21,0-52.92,20.61-102.67,58.02-140.08,37.42-37.42,87.17-58.02,140.08-58.02s102.67,20.61,140.08,58.02c37.42,37.42,58.02,87.17,58.02,140.08s-20.61,102.67-58.02,140.08ZM113.35,232.72l-3.31-8.38,12.72,9.69-1.73,30.99-20.02-18.62-4.97-19.23,17.76,18.7-.45-13.14ZM116.97,218.41l8.49-3.75-1.19,12.75-7.3-9ZM149.18,230.86c.23.02,9.41-2.15,9.41-2.15l-4.91,11.48,11.41-7.34-30.95,30.95-.67-27.3,14.4-14.37-9.52,25.16s10.61-16.44,10.84-16.42ZM132.55,226.58l-1.53-11.92,8.14,2.05-6.61,9.87Z" class="cls-1"/><polygon points="62.85 307.12 50.67 319.3 92.24 336.52 62.85 307.12" class="cls-1"/><polygon points="88.39 307.12 80.46 315.06 107.56 326.29 88.39 307.12" class="cls-1"/><polygon points="340.89 251.47 371.85 280.03 360.97 274.07 378.18 296.42 404.34 270.26 334.4 200.32 252.49 282.23 239.42 269.36 193.4 315.38 172.26 336.52 195.35 322.86 234.35 280.82 229.9 295.72 233.04 301.58 190.55 344.18 229.09 319.96 309.09 239.96 305.77 250.14 333.48 215.58 350.09 245.51 338.59 234.21 317.87 255.87 325.41 259.53 313.59 293.63 327.91 311.32 264.5 374.72 358.89 308.61 340.89 251.47" class="cls-1"/><polygon points="389.17 305.96 393.32 291.65 296.85 388.12 389.17 305.96" class="cls-1"/></g><g><path d="M1366.35,223.74c9.94-16.53,14.92-35.54,14.92-57.04s-4.98-40.99-14.92-57.53c-9.95-16.53-24.55-29.44-43.81-38.75-19.26-9.3-43.33-13.96-72.21-13.96h-144.66v336.98h81.36v-116.98h40.86l58.07,116.98h95.32l-72.52-125.39c4.83-1.63,9.45-3.45,13.79-5.55,19.26-9.3,33.86-22.22,43.81-38.75ZM1187.03,125.29h57.53c10.91,0,20.29,1.77,28.16,5.3,7.86,3.53,13.88,8.59,18.05,15.16,4.17,6.58,6.26,14.52,6.26,23.83s-2.09,17.26-6.26,23.83c-4.17,6.58-10.19,11.55-18.05,14.92-7.87,3.37-17.25,5.06-28.16,5.06h-57.53v-88.1Z" class="cls-1"/><path d="M2464.99,262.49c19.26-9.3,33.86-22.22,43.81-38.75,9.94-16.53,14.92-35.54,14.92-57.04s-4.98-40.99-14.92-57.53c-9.95-16.53-24.55-29.44-43.81-38.75-19.26-9.3-43.33-13.96-72.21-13.96h-144.66v336.98h81.36v-116.98h40.86l58.07,116.98h95.32l-72.52-125.39c4.83-1.63,9.45-3.45,13.79-5.55ZM2329.48,125.29h57.53c10.91,0,20.29,1.77,28.16,5.3,7.86,3.53,13.88,8.59,18.05,15.16,4.17,6.58,6.26,14.52,6.26,23.83s-2.09,17.26-6.26,23.83c-4.17,6.58-10.19,11.55-18.05,14.92-7.87,3.37-17.25,5.06-28.16,5.06h-57.53v-88.1Z" class="cls-1"/><polygon points="1683.44 56.45 1584.75 56.45 1498.19 163.64 1496.03 160.96 1496.03 56.45 1411.78 56.45 1411.78 393.43 1496.03 393.43 1496.03 288.93 1498.19 286.25 1584.75 393.43 1683.44 393.43 1547.61 224.94 1683.44 56.45" class="cls-1"/><path d="M1783.88,56.45h0c-76.1,0-137.8,61.69-137.8,137.8v61.38c0,23.2,5.73,45.06,15.86,64.25,23.09,43.74,69.03,73.55,121.94,73.55h0c76.1,0,137.8-61.69,137.8-137.8v-61.38c0-76.1-61.69-137.8-137.8-137.8ZM1840.3,255.63c0,31.11-25.31,56.42-56.42,56.42-21,0-40.15-11.56-49.97-30.17-4.28-8.1-6.45-16.93-6.45-26.25v-61.38c0-31.11,25.31-56.42,56.42-56.42s56.42,25.31,56.42,56.42v61.38Z" class="cls-1"/><path d="M2141.32,255.63c0,31.11-25.31,56.42-56.42,56.42s-56.42-25.31-56.42-56.42V56.45h-81.38v199.18c0,76.1,61.69,137.8,137.8,137.8h0c76.1,0,137.8-61.69,137.8-137.8V56.45h-81.38v199.18Z" class="cls-1"/><path d="M818.02,225.18c9.94-16.53,14.92-36.02,14.92-58.49s-4.98-42.84-14.92-59.21c-9.95-16.37-24.63-28.96-44.05-37.79-19.42-8.82-43.41-13.24-71.97-13.24h-144.66v336.98h81.36v-116.98h63.3c28.56,0,52.55-4.41,71.97-13.24,19.41-8.82,34.1-21.5,44.05-38.03ZM740.52,198.47c-9.31,7.38-22.14,11.07-38.51,11.07h-63.3v-86.17h63.3c16.37,0,29.2,3.69,38.51,11.07,9.3,7.39,13.96,18.13,13.96,32.25s-4.66,24.39-13.96,31.77Z" class="cls-1"/><polygon points="917.72 77.67 928.16 65.34 930.18 71.04 940.62 58.71 942.64 64.41 953.08 52.07 955.09 57.78 957.65 54.75 938.49 0 911.59 76.84 915.71 71.97 917.72 77.67" class="cls-1"/><path d="M953.61,65.81l-2.01-5.72-10.44,12.33-2.02-5.7-10.44,12.34-2.02-5.7-10.44,12.34-2.01-5.7-6.39,7.55-107.08,305.9h86.23l14.71-42.02h73.57l14.71,42.02h86.22l-117-334.24-5.59,6.61ZM923.77,288.35l14.71-42.02,14.71,42.02h-29.42Z" class="cls-1"/></g></g></g></svg>