<svg xmlns="http://www.w3.org/2000/svg" id="Calque_2" data-name="Calque 2" viewBox="0 0 393.43 393.43"><defs><style>.cls-1{fill:#fff;stroke-width:0}</style></defs><g id="Calque_1-2" data-name="Calque 1"><g><path d="M196.72,0C88.07,0,0,88.07,0,196.72s88.07,196.72,196.72,196.72,196.72-88.07,196.72-196.72S305.36,0,196.72,0ZM324.5,324.5c-34.13,34.13-79.51,52.93-127.79,52.93-32.82,0-64.3-8.7-91.83-24.99l20.88,1.1,20.24,8.38,27.37-11.34-63.44-26.28-12.9-12.9,59.35,24.58-15.29-21.45,59.65,24.71,59.34,17.02-133.14-55.15-4.75-29.43.59-29.1,27.1-20.58-4.83,7.94,13.12,3.04.86-3.1,13.12,4.16-4.49-7.73,7.68,1.08s10.27,3.6,10.7,3.73c.43.13-5.78-5.1-5.78-5.1l25.2-10.08-13.91.1-8.77-9.71,17.34,1.01-27.36-21.47,16.14-1.64-22.45-18.68,14.85,1.21-27.01-26.7,13.72,6.12-21.23-22.29,10.1,3.67-18.38-18.7,6.73,2.79-26.15-39.03-24.59,31.2,17.52-6.67-25.54,20.23,11.05-2.62-21.83,18.04,16.48-4.45-34.26,27.5,16.48-.66-24.68,14.19,17.17,6.32-28.22,14.42,15.1-.29-19.59,11.03,17.35,3.66-7.21,6.31-14.07,5.11,24.45,9.98-2.83,3.63,15.09.2-4.4,5.82,18.39-2.28-2.36-4.5,15.72,5.13s-19.55-23.83-20.11-24.15c.44.23,9.11,4.42,9.11,4.42l25.78,27.11v30.37s-5.34,32.5-5.34,32.5l-35.68.94-11.38,5.81c-26.33-32.17-40.65-72.09-40.65-114.22,0-48.27,18.8-93.65,52.93-127.79,34.13-34.13,79.51-52.93,127.79-52.93s93.65,18.8,127.79,52.93c34.13,34.13,52.93,79.51,52.93,127.79s-18.8,93.65-52.93,127.79ZM103.4,203.81l-3.02-7.65,11.6,8.84-1.58,28.27-18.26-16.99-4.53-17.54,16.2,17.06-.41-11.99ZM106.7,190.75l7.74-3.42-1.08,11.63-6.66-8.21ZM136.08,202.12c.21.02,8.58-1.96,8.58-1.96l-4.48,10.47,10.41-6.7-28.23,28.23-.61-24.9,13.13-13.11-8.69,22.95s9.68-15,9.89-14.98ZM120.91,198.21l-1.4-10.87,7.43,1.87-6.03,9.01Z" class="cls-1"/><polygon points="57.33 271.68 46.22 282.79 84.14 298.49 57.33 271.68" class="cls-1"/><polygon points="80.63 271.68 73.39 278.92 98.12 289.16 80.63 271.68" class="cls-1"/><polygon points="310.96 220.92 339.2 246.97 329.28 241.53 344.98 261.92 368.84 238.05 305.04 174.26 230.33 248.97 218.4 237.24 176.42 279.21 157.14 298.49 178.2 286.03 213.77 247.69 209.72 261.28 212.58 266.62 173.82 305.48 208.98 283.39 281.96 210.42 278.93 219.7 304.2 188.17 319.36 215.48 308.86 205.17 289.97 224.93 296.84 228.27 286.05 259.37 299.12 275.51 241.28 333.35 327.38 273.03 310.96 220.92" class="cls-1"/><polygon points="355 270.62 358.79 257.57 270.79 345.57 355 270.62" class="cls-1"/></g></g></svg>