<?xml version="1.0" encoding="UTF-8"?>
<svg id="Calque_2" data-name="Calque 2" xmlns="http://www.w3.org/2000/svg" viewBox="0 0 606.47 121.34">
  <defs>
    <style>
      .cls-1 {
        fill: #fff;
        stroke-width: 0px;
      }
    </style>
  </defs>
  <g id="Calque_1-2" data-name="Calque 1">
    <g>
      <path class="cls-1" d="M249.51,69.01c3.07-5.1,4.6-10.96,4.6-17.59s-1.54-12.64-4.6-17.74c-3.07-5.1-7.57-9.08-13.51-11.95-5.94-2.87-13.36-4.31-22.27-4.31h-44.62v103.93h25.09v-36.08h12.6l17.91,36.08h29.4l-22.37-38.67c1.49-.5,2.91-1.06,4.25-1.71,5.94-2.87,10.44-6.85,13.51-11.95ZM194.21,38.64h17.74c3.36,0,6.26.54,8.69,1.63,2.42,1.09,4.28,2.65,5.57,4.68,1.29,2.03,1.93,4.48,1.93,7.35s-.64,5.32-1.93,7.35c-1.29,2.03-3.14,3.56-5.57,4.6-2.43,1.04-5.32,1.56-8.69,1.56h-17.74v-27.17Z"/>
      <path class="cls-1" d="M588.36,80.96c5.94-2.87,10.44-6.85,13.51-11.95,3.07-5.1,4.6-10.96,4.6-17.59s-1.54-12.64-4.6-17.74c-3.07-5.1-7.57-9.08-13.51-11.95-5.94-2.87-13.36-4.31-22.27-4.31h-44.62v103.93h25.09v-36.08h12.6l17.91,36.08h29.4l-22.37-38.67c1.49-.5,2.91-1.06,4.25-1.71ZM546.56,38.64h17.74c3.36,0,6.26.54,8.69,1.63,2.42,1.09,4.28,2.65,5.57,4.68,1.29,2.03,1.93,4.48,1.93,7.35s-.64,5.32-1.93,7.35c-1.29,2.03-3.14,3.56-5.57,4.6-2.43,1.04-5.32,1.56-8.69,1.56h-17.74v-27.17Z"/>
      <polygon class="cls-1" points="347.31 17.41 316.87 17.41 290.17 50.47 289.51 49.64 289.51 17.41 263.53 17.41 263.53 121.34 289.51 121.34 289.51 89.11 290.17 88.28 316.87 121.34 347.31 121.34 305.42 69.38 347.31 17.41"/>
      <path class="cls-1" d="M378.29,17.41h0c-23.47,0-42.5,19.03-42.5,42.5v18.93c0,7.16,1.77,13.9,4.89,19.81,7.12,13.49,21.29,22.69,37.61,22.69h0c23.47,0,42.5-19.03,42.5-42.5v-18.93c0-23.47-19.03-42.5-42.5-42.5ZM395.69,78.84c0,9.59-7.81,17.4-17.4,17.4-6.48,0-12.38-3.57-15.41-9.3-1.32-2.5-1.99-5.22-1.99-8.1v-18.93c0-9.59,7.81-17.4,17.4-17.4s17.4,7.81,17.4,17.4v18.93Z"/>
      <path class="cls-1" d="M488.53,78.84c0,9.59-7.81,17.4-17.4,17.4s-17.4-7.81-17.4-17.4V17.41h-25.1v61.43c0,23.47,19.03,42.5,42.5,42.5h0c23.47,0,42.5-19.03,42.5-42.5V17.41h-25.1v61.43Z"/>
      <path class="cls-1" d="M80.4,69.45c3.07-5.1,4.6-11.11,4.6-18.04s-1.54-13.21-4.6-18.26c-3.07-5.05-7.6-8.93-13.59-11.66-5.99-2.72-13.39-4.08-22.2-4.08H0v103.93h25.09v-36.08h19.52c8.81,0,16.21-1.36,22.2-4.08,5.99-2.72,10.52-6.63,13.59-11.73ZM56.49,61.21c-2.87,2.28-6.83,3.41-11.88,3.41h-19.52v-26.58h19.52c5.05,0,9.01,1.14,11.88,3.42,2.87,2.28,4.31,5.59,4.31,9.95s-1.44,7.52-4.31,9.8Z"/>
      <polygon class="cls-1" points="111.15 23.96 114.37 20.15 114.99 21.91 118.21 18.11 118.83 19.86 122.05 16.06 122.67 17.82 123.46 16.89 117.55 0 109.26 23.7 110.52 22.2 111.15 23.96"/>
      <path class="cls-1" d="M122.22,20.3l-.62-1.76-3.22,3.8-.62-1.76-3.22,3.81-.62-1.76-3.22,3.8-.62-1.76-1.97,2.33-33.03,94.35h26.59l4.54-12.96h22.69l4.54,12.96h26.59L123.94,18.26l-1.73,2.04ZM113.01,88.93l4.54-12.96,4.54,12.96h-9.07Z"/>
    </g>
  </g>
</svg>